<svg width="473" height="128" viewBox="0 0 473 128" fill="none" xmlns="http://www.w3.org/2000/svg">
<path d="M86.3529 26L68.7059 43.6471L51.0588 26M81.9412 43.6471V101M95.1765 78.9412V78.9853M95.1765 65.7059V65.75M29 52.4706C29 50.1304 29.9296 47.8861 31.5844 46.2314C33.2391 44.5767 35.4834 43.6471 37.8235 43.6471H99.5882C101.928 43.6471 104.173 44.5767 105.827 46.2314C107.482 47.8861 108.412 50.1304 108.412 52.4706V92.1765C108.412 94.5166 107.482 96.7609 105.827 98.4156C104.173 100.07 101.928 101 99.5882 101H37.8235C35.4834 101 33.2391 100.07 31.5844 98.4156C29.9296 96.7609 29 94.5166 29 92.1765V52.4706Z" stroke="#7B2DDA" stroke-width="8.82353" stroke-linecap="round" stroke-linejoin="round"/>
<path d="M178.52 80.64H155.24L151.24 92H141.72L161.64 36.32H172.2L192.12 92H182.52L178.52 80.64ZM175.96 73.2L166.92 47.36L157.8 73.2H175.96ZM218.541 47.2C221.955 47.2 224.968 47.8933 227.581 49.28C230.248 50.6133 232.328 52.2933 233.821 54.32V47.92H243.021V92.72C243.021 96.7733 242.168 100.373 240.461 103.52C238.755 106.72 236.275 109.227 233.021 111.04C229.821 112.853 225.981 113.76 221.501 113.76C215.528 113.76 210.568 112.347 206.621 109.52C202.675 106.747 200.435 102.96 199.901 98.16H208.941C209.635 100.453 211.101 102.293 213.341 103.68C215.635 105.12 218.355 105.84 221.501 105.84C225.181 105.84 228.141 104.72 230.381 102.48C232.675 100.24 233.821 96.9867 233.821 92.72V85.36C232.275 87.44 230.168 89.2 227.501 90.64C224.888 92.0267 221.901 92.72 218.541 92.72C214.701 92.72 211.181 91.76 207.981 89.84C204.835 87.8667 202.328 85.1467 200.461 81.68C198.648 78.16 197.741 74.1867 197.741 69.76C197.741 65.3333 198.648 61.4133 200.461 58C202.328 54.5867 204.835 51.9467 207.981 50.08C211.181 48.16 214.701 47.2 218.541 47.2ZM233.821 69.92C233.821 66.88 233.181 64.24 231.901 62C230.675 59.76 229.048 58.0533 227.021 56.88C224.995 55.7067 222.808 55.12 220.461 55.12C218.115 55.12 215.928 55.7067 213.901 56.88C211.875 58 210.221 59.68 208.941 61.92C207.715 64.1067 207.101 66.72 207.101 69.76C207.101 72.8 207.715 75.4667 208.941 77.76C210.221 80.0533 211.875 81.8133 213.901 83.04C215.981 84.2133 218.168 84.8 220.461 84.8C222.808 84.8 224.995 84.2133 227.021 83.04C229.048 81.8667 230.675 80.16 231.901 77.92C233.181 75.6267 233.821 72.96 233.821 69.92ZM259.64 42.08C257.987 42.08 256.6 41.52 255.48 40.4C254.36 39.28 253.8 37.8933 253.8 36.24C253.8 34.5867 254.36 33.2 255.48 32.08C256.6 30.96 257.987 30.4 259.64 30.4C261.24 30.4 262.6 30.96 263.72 32.08C264.84 33.2 265.4 34.5867 265.4 36.24C265.4 37.8933 264.84 39.28 263.72 40.4C262.6 41.52 261.24 42.08 259.64 42.08ZM264.12 47.92V92H255V47.92H264.12ZM298.334 47.2C301.8 47.2 304.894 47.92 307.614 49.36C310.387 50.8 312.547 52.9333 314.094 55.76C315.64 58.5867 316.414 62 316.414 66V92H307.374V67.36C307.374 63.4133 306.387 60.4 304.414 58.32C302.44 56.1867 299.747 55.12 296.334 55.12C292.92 55.12 290.2 56.1867 288.174 58.32C286.2 60.4 285.214 63.4133 285.214 67.36V92H276.094V47.92H285.214V52.96C286.707 51.1467 288.6 49.7333 290.894 48.72C293.24 47.7067 295.72 47.2 298.334 47.2ZM384.748 36.4V43.84H369.948V92H360.828V43.84H345.948V36.4H384.748ZM441.904 36.4L421.024 92H410.464L389.504 36.4H399.264L415.744 82.64L432.304 36.4H441.904Z" fill="url(#paint0_linear_1404_275)"/>
<defs>
<linearGradient id="paint0_linear_1404_275" x1="139" y1="4" x2="444" y2="124" gradientUnits="userSpaceOnUse">
<stop stop-color="#A363F0"/>
<stop offset="1" stop-color="#550E8F"/>
</linearGradient>
</defs>
</svg>
